<?xml version="1.0" standalone="no"?><!-- Generator: Gravit.io --><svg xmlns="http://www.w3.org/2000/svg" xmlns:xlink="http://www.w3.org/1999/xlink" style="isolation:isolate" viewBox="0 0 450 450" width="450" height="450"><defs><clipPath id="_clipPath_kkk13hA3DiUi6RoELlR6e8I5EPZNGWUS"><rect width="450" height="450"/></clipPath></defs><g clip-path="url(#_clipPath_kkk13hA3DiUi6RoELlR6e8I5EPZNGWUS)"><g id="Group"><rect x="46.333" y="183.524" width="363.714" height="82.952" transform="matrix(1,0,0,1,0,0)" fill="rgb(239,235,202)" vector-effect="non-scaling-stroke" stroke-width="4" stroke="rgb(0,0,0)" stroke-linejoin="miter" stroke-linecap="square" stroke-miterlimit="3"/><path d="M 46.333 158 L 403.667 158 C 414.232 158 422.81 166.578 422.81 177.143 L 422.81 177.143 C 422.81 187.708 414.232 196.286 403.667 196.286 L 46.333 196.286 C 35.768 196.286 27.19 187.708 27.19 177.143 L 27.19 177.143 C 27.19 166.578 35.768 158 46.333 158 Z" style="stroke:none;fill:#978274;stroke-miterlimit:10;"/><path d="M 46.333 158 L 403.667 158 C 414.232 158 422.81 166.578 422.81 177.143 L 422.81 177.143 C 422.81 187.708 414.232 196.286 403.667 196.286 L 46.333 196.286 C 35.768 196.286 27.19 187.708 27.19 177.143 L 27.19 177.143 C 27.19 166.578 35.768 158 46.333 158 Z" style="fill:none;stroke:#000000;stroke-width:4;stroke-linecap:square;stroke-miterlimit:3;"/><path d="M 46.333 253.714 L 403.667 253.714 C 414.232 253.714 422.81 262.292 422.81 272.857 L 422.81 272.857 C 422.81 283.422 414.232 292 403.667 292 L 46.333 292 C 35.768 292 27.19 283.422 27.19 272.857 L 27.19 272.857 C 27.19 262.292 35.768 253.714 46.333 253.714 Z" style="stroke:none;fill:#978274;stroke-linecap:square;stroke-miterlimit:3;"/><path d="M 46.333 253.714 L 403.667 253.714 C 414.232 253.714 422.81 262.292 422.81 272.857 L 422.81 272.857 C 422.81 283.422 414.232 292 403.667 292 L 46.333 292 C 35.768 292 27.19 283.422 27.19 272.857 L 27.19 272.857 C 27.19 262.292 35.768 253.714 46.333 253.714 Z" style="fill:none;stroke:#000000;stroke-width:4;stroke-linecap:square;stroke-miterlimit:3;"/><rect x="221.81" y="215.429" width="22.333" height="25.524" transform="matrix(1,0,0,1,0,0)" fill="rgb(253,109,92)" vector-effect="non-scaling-stroke" stroke-width="4" stroke="rgb(0,0,0)" stroke-linejoin="miter" stroke-linecap="square" stroke-miterlimit="3"/><rect x="205.857" y="209.048" width="54.238" height="6.381" transform="matrix(1,0,0,1,0,0)" fill="rgb(0,0,0)"/><rect x="170.762" y="209.048" width="25.524" height="6.381" transform="matrix(1,0,0,1,0,0)" fill="rgb(0,0,0)"/><rect x="52.714" y="234.571" width="25.524" height="6.381" transform="matrix(1,0,0,1,0,0)" fill="rgb(0,0,0)"/><rect x="49.524" y="221.81" width="15.952" height="6.381" transform="matrix(1,0,0,1,0,0)" fill="rgb(0,0,0)"/><rect x="295.19" y="234.571" width="31.905" height="6.381" transform="matrix(1,0,0,1,0,0)" fill="rgb(0,0,0)"/><rect x="333.476" y="234.571" width="44.667" height="6.381" transform="matrix(1,0,0,1,0,0)" fill="rgb(0,0,0)"/><rect x="371.762" y="209.048" width="28.714" height="6.381" transform="matrix(1,0,0,1,0,0)" fill="rgb(0,0,0)"/></g></g></svg>