<?xml version="1.0" encoding="UTF-8"?>
<!DOCTYPE svg PUBLIC "-//W3C//DTD SVG 1.1//EN" "http://www.w3.org/Graphics/SVG/1.1/DTD/svg11.dtd">
<svg version="1.1" xmlns="http://www.w3.org/2000/svg" xmlns:xlink="http://www.w3.org/1999/xlink" x="0" y="0" width="719" height="347" viewBox="0, 0, 719, 347">
  <g id="Layer_1">
    <path d="M713.833,140.499 L702.662,136.269 C700.105,132.079 694.889,120.567 703.593,106.392 L713.247,104.954 C714.522,104.764 715.51,103.736 715.647,102.453 C715.785,101.171 715.04,99.956 713.833,99.499 L459.833,3.327 C459.411,3.168 458.965,3.112 458.52,3.161 C458.52,3.161 252.727,30.187 255.497,30.187 C247.083,38.602 244.043,57.998 257.024,70.979 C256.959,71.037 261.56,73.083 269.53,76.562 C247.237,79.542 232.115,81.601 232.879,81.601 C224.465,90.016 221.426,109.412 234.407,122.393 C233.936,122.82 480.088,228.28 480.088,228.28 C480.572,228.491 481.106,228.56 481.63,228.481 L690.63,197.368 C691.906,197.177 692.894,196.149 693.03,194.866 C693.169,193.585 692.423,192.37 691.216,191.913 L680.045,187.684 C677.488,183.493 672.271,171.981 680.976,157.806 L690.63,156.368 C691.906,156.177 692.894,155.149 693.03,153.866 C693.169,152.585 692.423,151.37 691.216,150.913 L688.032,149.708 L713.247,145.954 C714.522,145.763 715.51,144.735 715.647,143.452 C715.785,142.171 715.04,140.956 713.833,140.499" fill="#1A1919"/>
    <path d="M713.833,140.499 L702.662,136.269 C700.105,132.079 694.889,120.567 703.593,106.392 L713.247,104.954 C714.522,104.764 715.51,103.736 715.647,102.453 C715.785,101.171 715.04,99.956 713.833,99.499 L459.833,3.327 C459.411,3.168 458.965,3.112 458.52,3.161 C458.52,3.161 252.727,30.187 255.497,30.187 C247.083,38.602 244.043,57.998 257.024,70.979 C256.959,71.037 261.56,73.083 269.53,76.562 C247.237,79.542 232.115,81.601 232.879,81.601 C224.465,90.016 221.426,109.412 234.407,122.393 C233.936,122.82 480.088,228.28 480.088,228.28 C480.572,228.491 481.106,228.56 481.63,228.481 L690.63,197.368 C691.906,197.177 692.894,196.149 693.03,194.866 C693.169,193.585 692.423,192.37 691.216,191.913 L680.045,187.684 C677.488,183.493 672.271,171.981 680.976,157.806 L690.63,156.368 C691.906,156.177 692.894,155.149 693.03,153.866 C693.169,152.585 692.423,151.37 691.216,150.913 L688.032,149.708 L713.247,145.954 C714.522,145.763 715.51,144.735 715.647,143.452 C715.785,142.171 715.04,140.956 713.833,140.499 z" fill-opacity="0" stroke="#1A1919" stroke-width="5" stroke-linecap="round" stroke-linejoin="round"/>
    <path d="M234.407,122.393 C221.426,109.412 224.465,90.016 232.879,81.601 C230.11,81.601 435.902,54.575 435.902,54.575 C436.348,54.526 436.795,54.582 437.217,54.741 L691.216,150.913 C692.423,151.37 693.169,152.585 693.03,153.866 C692.894,155.149 691.906,156.177 690.63,156.368 L623.667,166.337 L691.216,191.913 C692.423,192.37 693.169,193.585 693.03,194.866 C692.894,196.149 691.906,197.177 690.63,197.368 L481.63,228.481 C481.106,228.56 480.572,228.491 480.088,228.28 C480.088,228.28 233.936,122.82 234.407,122.393" fill="#92AA83"/>
    <path d="M234.407,122.393 C221.426,109.412 224.465,90.016 232.879,81.601 C230.11,81.601 435.902,54.575 435.902,54.575 C436.348,54.526 436.795,54.582 437.217,54.741 L691.216,150.913 C692.423,151.37 693.169,152.585 693.03,153.866 C692.894,155.149 691.906,156.177 690.63,156.368 L623.667,166.337 L691.216,191.913 C692.423,192.37 693.169,193.585 693.03,194.866 C692.894,196.149 691.906,197.177 690.63,197.368 L481.63,228.481 C481.106,228.56 480.572,228.491 480.088,228.28 C480.088,228.28 233.936,122.82 234.407,122.393 z" fill-opacity="0" stroke="#1A1919" stroke-width="1.942" stroke-linecap="round" stroke-linejoin="round"/>
    <path d="M680.976,157.806 L481.212,184.679 C481.212,184.679 469.212,196.935 480.212,222.392 L681.212,189.392 C681.212,189.392 669.976,175.72 680.976,157.806" fill="#FFFFFE"/>
    <path d="M680.976,157.806 L481.212,184.679 C481.212,184.679 469.212,196.935 480.212,222.392 L681.212,189.392 C681.212,189.392 669.976,175.72 680.976,157.806 z" fill-opacity="0" stroke="#1A1919" stroke-width="1.942" stroke-linecap="round" stroke-linejoin="round"/>
    <path d="M235.651,85.394 L476.878,184.679" fill="#FFFFFE"/>
    <path d="M235.651,85.394 L476.878,184.679" fill-opacity="0" stroke="#1A1919" stroke-width="1.942" stroke-linecap="round" stroke-linejoin="round"/>
    <path d="M257.024,70.979 C244.043,57.998 247.083,38.602 255.497,30.187 C252.727,30.187 458.52,3.161 458.52,3.161 C458.965,3.112 459.411,3.168 459.833,3.327 L713.833,99.499 C715.04,99.956 715.785,101.171 715.647,102.453 C715.51,103.736 714.522,104.764 713.247,104.954 L646.284,114.923 L713.833,140.499 C715.04,140.956 715.785,142.171 715.647,143.452 C715.51,144.735 714.522,145.763 713.247,145.954 L504.247,177.067 C503.724,177.145 503.188,177.077 502.704,176.866 C502.704,176.866 256.553,71.406 257.024,70.979" fill="#D5AB71"/>
    <path d="M257.024,70.979 C244.043,57.998 247.083,38.602 255.497,30.187 C252.727,30.187 458.52,3.161 458.52,3.161 C458.965,3.112 459.411,3.168 459.833,3.327 L713.833,99.499 C715.04,99.956 715.785,101.171 715.647,102.453 C715.51,103.736 714.522,104.764 713.247,104.954 L646.284,114.923 L713.833,140.499 C715.04,140.956 715.785,142.171 715.647,143.452 C715.51,144.735 714.522,145.763 713.247,145.954 L504.247,177.067 C503.724,177.145 503.188,177.077 502.704,176.866 C502.704,176.866 256.553,71.406 257.024,70.979 z" fill-opacity="0" stroke="#1A1919" stroke-width="1.942" stroke-linecap="round" stroke-linejoin="round"/>
    <path d="M703.593,106.392 L503.829,133.265 C503.829,133.265 491.829,145.52 502.829,170.977 L703.829,137.977 C703.829,137.977 692.593,124.306 703.593,106.392" fill="#FFFFFE"/>
    <path d="M703.593,106.392 L503.829,133.265 C503.829,133.265 491.829,145.52 502.829,170.977 L703.829,137.977 C703.829,137.977 692.593,124.306 703.593,106.392 z" fill-opacity="0" stroke="#1A1919" stroke-width="1.942" stroke-linecap="round" stroke-linejoin="round"/>
    <path d="M258.268,33.979 L499.495,133.265" fill="#FFFFFE"/>
    <path d="M258.268,33.979 L499.495,133.265" fill-opacity="0" stroke="#1A1919" stroke-width="1.942" stroke-linecap="round" stroke-linejoin="round"/>
    <path d="M371.085,170.165 C371.085,170.556 371.001,170.927 370.854,171.263 C370.161,170.056 369.367,168.774 368.458,167.429 C369.918,167.493 371.085,168.688 371.085,170.165 z M544.839,246.161 L542.289,243.612 L544.335,242.665 L539.835,220.165 C539.835,220.165 528.544,202.456 467.335,182.124 C416.598,165.269 375.335,181.665 375.335,181.665 L370.335,152.665 L359.473,156.606 C352.148,149.259 341.573,141.399 326.335,134.665 C270.509,109.999 251.28,122.479 251.28,122.479 L15.458,211.159 C15.458,211.159 28.899,209.263 47.916,209.798 L15.458,211.159 L5.335,232.851 C5.335,232.851 5.597,232.831 6.089,232.798 L3.792,234.288 C2.714,234.987 2.242,236.323 2.64,237.544 C3.039,238.767 4.209,239.567 5.492,239.495 C6.14,239.46 70.585,236.048 97.711,247.769 C123.769,259.026 126.424,276.306 126.524,277.034 C126.664,278.048 127.339,278.923 128.288,279.3 L167.288,294.8 C167.813,295.009 168.387,295.056 168.938,294.935 C169.414,294.831 216.857,284.655 246.708,291.431 C276.62,298.22 339.543,343.507 340.175,343.964 C341.007,344.565 342.1,344.669 343.03,344.235 L544.03,250.735 C544.869,250.345 545.465,249.569 545.626,248.659 C545.787,247.747 545.493,246.815 544.839,246.161" fill="#1A1919"/>
    <path d="M371.085,170.165 C371.085,170.556 371.001,170.927 370.854,171.263 C370.161,170.056 369.367,168.774 368.458,167.429 C369.918,167.493 371.085,168.688 371.085,170.165 z M544.839,246.161 L542.289,243.612 L544.335,242.665 L539.835,220.165 C539.835,220.165 528.544,202.456 467.335,182.124 C416.598,165.269 375.335,181.665 375.335,181.665 L370.335,152.665 L359.473,156.606 C352.148,149.259 341.573,141.399 326.335,134.665 C270.509,109.999 251.28,122.479 251.28,122.479 L15.458,211.159 C15.458,211.159 28.899,209.263 47.916,209.798 L15.458,211.159 L5.335,232.851 C5.335,232.851 5.597,232.831 6.089,232.798 L3.792,234.288 C2.714,234.987 2.242,236.323 2.64,237.544 C3.039,238.767 4.209,239.567 5.492,239.495 C6.14,239.46 70.585,236.048 97.711,247.769 C123.769,259.026 126.424,276.306 126.524,277.034 C126.664,278.048 127.339,278.923 128.288,279.3 L167.288,294.8 C167.813,295.009 168.387,295.056 168.938,294.935 C169.414,294.831 216.857,284.655 246.708,291.431 C276.62,298.22 339.543,343.507 340.175,343.964 C341.007,344.565 342.1,344.669 343.03,344.235 L544.03,250.735 C544.869,250.345 545.465,249.569 545.626,248.659 C545.787,247.747 545.493,246.815 544.839,246.161 z" fill-opacity="0" stroke="#1A1919" stroke-width="5" stroke-linecap="round" stroke-linejoin="round"/>
    <path d="M372.123,163.038 L379.335,153.165 L380.835,158.165 L384.021,161.352 L372.844,167.22 L372.123,163.038" fill="#80312C"/>
    <path d="M372.123,163.038 L379.335,153.165 L380.835,158.165 L384.021,161.352 L372.844,167.22 L372.123,163.038 z" fill-opacity="0" stroke="#1A1919" stroke-width="2" stroke-linecap="round" stroke-linejoin="round"/>
    <path d="M64.925,211.48 L10.892,229.785 C10.669,229.86 10.457,229.964 10.259,230.092 L3.792,234.287 C2.714,234.986 2.242,236.323 2.64,237.544 C3.039,238.766 4.209,239.566 5.492,239.495 C6.14,239.46 70.585,236.048 97.711,247.768 C123.769,259.025 126.424,276.305 126.524,277.034 C126.664,278.047 127.339,278.922 128.288,279.299 L167.288,294.799 C167.813,295.008 168.387,295.055 168.938,294.935 C169.414,294.831 216.857,284.655 246.708,291.43 C276.62,298.219 339.543,343.506 340.175,343.963 C341.007,344.564 342.1,344.668 343.031,344.235 L544.03,250.735 C544.869,250.345 545.465,249.569 545.626,248.658 C545.787,247.747 545.493,246.815 544.839,246.161 L538.839,240.161 C538.349,239.67 537.695,239.377 537.003,239.335 L66.003,211.335 C65.638,211.313 65.272,211.363 64.925,211.48" fill="#E9897A"/>
    <path d="M64.925,211.48 L10.892,229.785 C10.669,229.86 10.457,229.964 10.259,230.092 L3.792,234.287 C2.714,234.986 2.242,236.323 2.64,237.544 C3.039,238.766 4.209,239.566 5.492,239.495 C6.14,239.46 70.585,236.048 97.711,247.768 C123.769,259.025 126.424,276.305 126.524,277.034 C126.664,278.047 127.339,278.922 128.288,279.299 L167.288,294.799 C167.813,295.008 168.387,295.055 168.938,294.935 C169.414,294.831 216.857,284.655 246.708,291.43 C276.62,298.219 339.543,343.506 340.175,343.963 C341.007,344.564 342.1,344.668 343.031,344.235 L544.03,250.735 C544.869,250.345 545.465,249.569 545.626,248.658 C545.787,247.747 545.493,246.815 544.839,246.161 L538.839,240.161 C538.349,239.67 537.695,239.377 537.003,239.335 L66.003,211.335 C65.638,211.313 65.272,211.363 64.925,211.48 z" fill-opacity="0" stroke="#1A1919" stroke-width="2" stroke-linecap="round" stroke-linejoin="round"/>
    <path d="M15.458,211.159 L5.335,232.851 C5.335,232.851 74.335,227.665 105.335,241.665 C136.335,255.665 134.335,276.665 134.335,276.665 L166.335,288.665 C166.335,288.665 221.335,275.665 256.335,286.665 C291.335,297.665 343.335,335.665 343.335,335.665 L342.335,306.665 L315.335,250.665 L170.335,204.665 L15.458,211.159" fill="#FFFFFE"/>
    <path d="M15.458,211.159 L5.335,232.851 C5.335,232.851 74.335,227.665 105.335,241.665 C136.335,255.665 134.335,276.665 134.335,276.665 L166.335,288.665 C166.335,288.665 221.335,275.665 256.335,286.665 C291.335,297.665 343.335,335.665 343.335,335.665 L342.335,306.665 L315.335,250.665 L170.335,204.665 L15.458,211.159 z" fill-opacity="0" stroke="#1A1919" stroke-width="2" stroke-linecap="round" stroke-linejoin="round"/>
    <path d="M15.458,211.159 L251.28,122.479 C251.28,122.479 270.509,109.999 326.335,134.665 C369.335,153.665 375.335,181.665 375.335,181.665 L156.835,267.165 C156.835,267.165 150.335,235.665 105.335,219.665 C62.674,204.497 15.458,211.159 15.458,211.159" fill="#FFFFFE"/>
    <path d="M15.458,211.159 L251.28,122.479 C251.28,122.479 270.509,109.999 326.335,134.665 C369.335,153.665 375.335,181.665 375.335,181.665 L156.835,267.165 C156.835,267.165 150.335,235.665 105.335,219.665 C62.674,204.497 15.458,211.159 15.458,211.159 z" fill-opacity="0" stroke="#1A1919" stroke-width="2" stroke-linecap="round" stroke-linejoin="round"/>
    <path d="M156.835,267.165 C156.835,267.165 213.335,251.583 270.335,266.665 C325.099,281.157 342.335,306.665 342.335,306.665 L539.835,220.165 C539.835,220.165 528.544,202.456 467.335,182.124 C416.598,165.269 375.335,181.665 375.335,181.665 L156.835,267.165" fill="#FFFFFE"/>
    <path d="M156.835,267.165 C156.835,267.165 213.335,251.583 270.335,266.665 C325.099,281.157 342.335,306.665 342.335,306.665 L539.835,220.165 C539.835,220.165 528.544,202.456 467.335,182.124 C416.598,165.269 375.335,181.665 375.335,181.665 L156.835,267.165 z" fill-opacity="0" stroke="#1A1919" stroke-width="2" stroke-linecap="round" stroke-linejoin="round"/>
    <path d="M343.335,335.665 L544.335,242.665 L539.835,220.165 L342.335,306.665 L343.335,335.665" fill="#FFFFFE"/>
    <path d="M343.335,335.665 L544.335,242.665 L539.835,220.165 L342.335,306.665 L343.335,335.665 z" fill-opacity="0" stroke="#1A1919" stroke-width="2" stroke-linecap="round" stroke-linejoin="round"/>
    <path d="M368.335,172.915 C366.816,172.915 365.585,171.685 365.585,170.165 C365.585,168.647 366.816,167.415 368.335,167.415 C369.854,167.415 371.085,168.647 371.085,170.165 C371.085,171.685 369.854,172.915 368.335,172.915 z M370.335,152.665 L257.335,193.665 L262.069,225.987 L375.335,181.665 L370.335,152.665" fill="#F5D9E1"/>
    <path d="M368.335,172.915 C366.816,172.915 365.585,171.685 365.585,170.165 C365.585,168.647 366.816,167.415 368.335,167.415 C369.854,167.415 371.085,168.647 371.085,170.165 C371.085,171.685 369.854,172.915 368.335,172.915 z M370.335,152.665 L257.335,193.665 L262.069,225.987 L375.335,181.665 L370.335,152.665 z" fill-opacity="0" stroke="#1A1919" stroke-width="2" stroke-linecap="round" stroke-linejoin="round"/>
    <path d="M371.12,168.063 L390.468,162.938 L389.554,167.601 L391.723,170.829 L371.85,170.704 L371.12,168.063" fill="#80312C"/>
    <path d="M371.12,168.063 L390.468,162.938 L389.554,167.601 L391.723,170.829 L371.85,170.704 L371.12,168.063 z" fill-opacity="0" stroke="#1A1919" stroke-width="2" stroke-linecap="round" stroke-linejoin="round"/>
    <path d="M372.493,165.181 L373.688,166.376 L375.124,170.374 L369.559,171.429 L368.335,167.415 L372.493,165.181" fill="#80312C"/>
    <path d="M372.493,165.181 L373.688,166.376 L375.124,170.374 L369.559,171.429 L368.335,167.415 L372.493,165.181 z" fill-opacity="0" stroke="#1A1919" stroke-width="2" stroke-linecap="round" stroke-linejoin="round"/>
    <path d="M354.365,283.282 L497.699,220.614" fill="#FFFFFE"/>
    <path d="M354.365,283.282 L497.699,220.614" fill-opacity="0" stroke="#1A1919" stroke-width="1" stroke-linecap="round" stroke-linejoin="round"/>
    <path d="M482.92,213.751 L339.586,276.419" fill="#FFFFFE"/>
    <path d="M482.92,213.751 L339.586,276.419" fill-opacity="0" stroke="#1A1919" stroke-width="1" stroke-linecap="round" stroke-linejoin="round"/>
    <path d="M471.234,206.102 L327.9,268.77" fill="#FFFFFE"/>
    <path d="M471.234,206.102 L327.9,268.77" fill-opacity="0" stroke="#1A1919" stroke-width="1" stroke-linecap="round" stroke-linejoin="round"/>
    <path d="M456.273,202.02 L312.939,264.686" fill="#FFFFFE"/>
    <path d="M456.273,202.02 L312.939,264.686" fill-opacity="0" stroke="#1A1919" stroke-width="1" stroke-linecap="round" stroke-linejoin="round"/>
  </g>
</svg>
