<?xml version="1.0" standalone="no"?><!-- Generator: Gravit.io --><svg xmlns="http://www.w3.org/2000/svg" xmlns:xlink="http://www.w3.org/1999/xlink" style="isolation:isolate" viewBox="0 0 450 450" width="450" height="450"><defs><clipPath id="_clipPath_1IUOkUi6jSLhSSM4dyANlleDMizqafsu"><rect width="450" height="450"/></clipPath></defs><g clip-path="url(#_clipPath_1IUOkUi6jSLhSSM4dyANlleDMizqafsu)"><g id="Group"><path d=" M 193.333 386.028 C 185.442 382.321 180 374.291 180 365 L 180 85 C 180 75.709 185.442 67.679 193.333 63.972 L 193.333 386.028 Z " fill="rgb(245,134,44)"/><path d=" M 193.333 386.028 C 196.347 387.522 199.746 388.333 203.333 388.333 L 256.667 388.333 L 256.667 61.667 L 203.333 61.667 C 199.746 61.667 196.347 62.478 193.333 63.972 L 193.333 386.028 Z " fill="rgb(242,103,34)"/><path d=" M 256.667 388.333 C 269.545 388.333 280 377.878 280 365 L 280 85 C 280 72.122 269.545 61.667 256.667 61.667 L 256.667 388.333 Z " fill="rgb(239,86,28)"/><path d=" M 200 158.333 L 220 138.333 L 240 158.333 L 240 61.667 L 200 61.667 L 200 158.333 Z " fill="rgb(254,218,0)"/></g></g></svg>