<svg id="Flat" height="512" viewBox="0 0 512 512" width="512" xmlns="http://www.w3.org/2000/svg"><rect fill="#6a7073" height="464" rx="32" width="400" x="56" y="24"/><path d="m88 56h336v384h-336z" fill="#fbe9d8"/><g fill="#bfb1a3"><path d="m256 408a8 8 0 0 1 -8-8v-304a8 8 0 0 1 16 0v304a8 8 0 0 1 -8 8z"/><path d="m224 152h-64a8 8 0 0 1 0-16h64a8 8 0 0 1 0 16z"/><path d="m224 184h-96a8 8 0 0 1 0-16h96a8 8 0 0 1 0 16z"/><path d="m224 216h-96a8 8 0 0 1 0-16h96a8 8 0 0 1 0 16z"/><path d="m224 248h-96a8 8 0 0 1 0-16h96a8 8 0 0 1 0 16z"/><path d="m224 280h-96a8 8 0 0 1 0-16h96a8 8 0 0 1 0 16z"/><path d="m224 312h-96a8 8 0 0 1 0-16h96a8 8 0 0 1 0 16z"/><path d="m224 344h-96a8 8 0 0 1 0-16h96a8 8 0 0 1 0 16z"/><path d="m224 376h-96a8 8 0 0 1 0-16h96a8 8 0 0 1 0 16z"/><path d="m224 408h-96a8 8 0 0 1 0-16h96a8 8 0 0 1 0 16z"/><path d="m336 120h-48a8 8 0 0 1 0-16h48a8 8 0 0 1 0 16z"/><path d="m384 152h-96a8 8 0 0 1 0-16h96a8 8 0 0 1 0 16z"/><path d="m384 184h-96a8 8 0 0 1 0-16h96a8 8 0 0 1 0 16z"/><path d="m384 216h-96a8 8 0 0 1 0-16h96a8 8 0 0 1 0 16z"/><path d="m384 248h-96a8 8 0 0 1 0-16h96a8 8 0 0 1 0 16z"/><path d="m384 280h-96a8 8 0 0 1 0-16h96a8 8 0 0 1 0 16z"/><path d="m384 312h-96a8 8 0 0 1 0-16h96a8 8 0 0 1 0 16z"/><path d="m384 344h-96a8 8 0 0 1 0-16h96a8 8 0 0 1 0 16z"/><path d="m384 376h-96a8 8 0 0 1 0-16h96a8 8 0 0 1 0 16z"/><path d="m384 408h-96a8 8 0 0 1 0-16h96a8 8 0 0 1 0 16z"/><path d="m168 104h-48a8 8 0 0 1 0-16h48a8 8 0 0 1 0 16z"/></g><path d="m384 120-24-16-24 16v-64h48z" fill="#ed6f6d"/></svg>