<svg id="Capa_1" enable-background="new 0 0 512 512" height="512" viewBox="0 0 512 512" width="512" xmlns="http://www.w3.org/2000/svg"><g><g><path d="m405.68 504.502h-266.928c-26.981 0-48.853-21.872-48.853-48.853v-60.552h332.218v92.968c0 9.078-7.359 16.437-16.437 16.437z" fill="#f9f7f8"/></g><g><path d="m422.115 395.1v92.964c0 9.08-7.358 16.438-16.438 16.438h-19.465c9.08 0 16.438-7.358 16.438-16.438v-92.964z" fill="#efedef"/></g><g><path d="m422.115 33.447v368.041c0 7.07-5.731 12.801-12.801 12.801h-275.872c-12.02 0-22.91 4.876-30.793 12.749-7.874 7.883-12.749 18.764-12.749 30.793v-375.345c0-34.153 27.687-61.84 61.84-61.84h257.575c7.068 0 12.8 5.731 12.8 12.801z" fill="#e8ad8c"/></g><g><path d="m422.115 33.444v368.04c0 7.075-5.732 12.808-12.798 12.808h-19.465c7.066 0 12.798-5.733 12.798-12.808v-368.04c0-7.066-5.732-12.798-12.798-12.798h19.465c7.065 0 12.798 5.733 12.798 12.798z" fill="#e19974"/></g><g><path d="m353.345 7.498h-22.37c-1.951 0-3.532 1.581-3.532 3.532v90.027c0 3.192 3.503 5.146 6.219 3.468l17.541-10.835c1.313-.811 2.971-.811 4.285 0l17.541 10.835c2.716 1.678 6.219-.276 6.219-3.468v-90.027c0-1.951-1.581-3.532-3.532-3.532z" fill="#e5caf3"/></g><g><path d="m379.243 11.027v90.032c0 3.189-3.499 5.148-6.218 3.469l-13.416-8.287v-85.214c0-1.949-1.579-3.529-3.529-3.529h19.634c1.95 0 3.529 1.579 3.529 3.529z" fill="#d9b1ee"/></g><g><path d="m332.364 164.302c4.141 0 7.498-3.356 7.498-7.498s-3.356-7.498-7.498-7.498h-141.084c-4.141 0-7.498 3.356-7.498 7.498s3.356 7.498 7.498 7.498z"/><path d="m156.538 211.636c0 4.141 3.356 7.498 7.498 7.498h195.573c4.141 0 7.498-3.356 7.498-7.498s-3.356-7.498-7.498-7.498h-195.573c-4.141 0-7.498 3.357-7.498 7.498z"/><path d="m164.036 252.381h195.573c4.141 0 7.498-3.356 7.498-7.498 0-4.141-3.356-7.498-7.498-7.498h-195.573c-4.141 0-7.498 3.356-7.498 7.498s3.357 7.498 7.498 7.498z"/><path d="m164.036 285.629h195.573c4.141 0 7.498-3.356 7.498-7.498 0-4.141-3.356-7.498-7.498-7.498h-195.573c-4.141 0-7.498 3.356-7.498 7.498s3.357 7.498 7.498 7.498z"/><path d="m429.612 33.448c0-11.193-9.106-20.299-20.298-20.299h-22.568v-2.119c0-6.082-4.948-11.03-11.03-11.03h-44.741c-6.082 0-11.03 4.948-11.03 11.03v2.118h-168.206c-38.233 0-69.338 31.105-69.338 69.338v209.973c0 4.141 3.356 7.498 7.498 7.498s7.498-3.356 7.498-7.498v-209.973c0-29.964 24.378-54.342 54.343-54.342h168.206v72.914c0 4.193 2.275 8.067 5.938 10.108 1.753.978 3.695 1.464 5.636 1.464 2.114 0 4.224-.577 6.083-1.726l15.744-9.724 15.742 9.724c3.568 2.207 8.06 2.305 11.72.263 3.663-2.041 5.938-5.915 5.938-10.108v-19.846c0-4.141-3.356-7.498-7.498-7.498-4.141 0-7.498 3.356-7.498 7.498v13.71l-12.321-7.611c-3.752-2.317-8.415-2.318-12.166 0l-12.322 7.611v-79.928h36.81v31.28c0 4.141 3.356 7.498 7.498 7.498 4.141 0 7.498-3.356 7.498-7.498v-18.131h22.568c2.924 0 5.303 2.379 5.303 5.304v368.041c0 2.924-2.379 5.303-5.303 5.303h-275.874c-13.602 0-26.398 5.287-36.045 14.897v-94.139c0-4.141-3.356-7.498-7.498-7.498s-7.498 3.356-7.498 7.498v128.1c0 1.043-.08 2.318.116 3.46 1.795 29.464 26.326 52.89 56.235 52.89h266.928c13.198 0 23.935-10.737 23.935-23.935zm-14.992 420.014h-246.582c-4.141 0-7.498 3.356-7.498 7.498 0 4.141 3.356 7.498 7.498 7.498h246.582v19.608c0 4.929-4.01 8.94-8.94 8.94h-266.928c-22.445 0-40.757-17.976-41.328-40.286.278-9.206 3.985-17.829 10.524-24.374 6.815-6.808 15.869-10.557 25.494-10.557h275.872c1.838 0 3.611-.267 5.306-.728z"/></g></g></svg>