<svg id="Capa_1" enable-background="new 0 0 512 512" height="512" viewBox="0 0 512 512" width="512" xmlns="http://www.w3.org/2000/svg"><g><g><path d="m476.379 78.102-220.469 26.664-220.289-26.664c-17.415 0-31.533 14.118-31.533 31.533v318.852c0 17.415 14.118 31.533 31.533 31.533h180.227c0 4.641 3.763 8.404 8.404 8.404h63.497c4.641 0 8.404-3.763 8.404-8.404h180.227c17.415 0 31.533-14.118 31.533-31.533v-318.852c-.001-17.415-14.119-31.533-31.534-31.533z" fill="#eaa895"/><path d="m460.937 433.053c-59.002-1.647-125.434 5.387-195.953 17.195-5.828.976-11.789.911-17.579-.271-66.117-13.501-131.508-19.327-196.126-16.976-15.731.572-28.841-11.577-28.841-26.884v-319.089c0-14.423 11.683-26.288 26.5-26.926 72.825-3.131 142.344 21.137 206.966 37.839 69.25-18.218 138.57-43.815 208.148-38.731 14.41 1.053 25.511 12.81 25.511 26.862v320.054c0 15.231-12.969 27.364-28.626 26.927z" fill="#f9fbfc"/><g fill="#eaa895"><path d="m483.842 78.678c-1.713 0-3.102 1.389-3.102 3.102 0 1.714 1.389 3.103 3.102 3.103s3.102-1.389 3.102-3.103c0-1.713-1.388-3.102-3.102-3.102z"/><path d="m483.842 98.678c-1.713 0-3.102 1.389-3.102 3.102 0 1.714 1.389 3.103 3.102 3.103s3.102-1.389 3.102-3.103c0-1.713-1.388-3.102-3.102-3.102z"/><path d="m483.842 118.678c-1.713 0-3.102 1.389-3.102 3.102 0 1.714 1.389 3.103 3.102 3.103s3.102-1.389 3.102-3.103c0-1.713-1.388-3.102-3.102-3.102z"/><path d="m483.842 138.678c-1.713 0-3.102 1.389-3.102 3.102 0 1.714 1.389 3.103 3.102 3.103s3.102-1.389 3.102-3.103c0-1.713-1.388-3.102-3.102-3.102z"/><path d="m483.842 158.678c-1.713 0-3.102 1.389-3.102 3.102 0 1.714 1.389 3.103 3.102 3.103s3.102-1.389 3.102-3.103c0-1.713-1.388-3.102-3.102-3.102z"/><path d="m483.842 178.678c-1.713 0-3.102 1.389-3.102 3.102 0 1.714 1.389 3.103 3.102 3.103s3.102-1.389 3.102-3.103c0-1.713-1.388-3.102-3.102-3.102z"/><path d="m483.842 198.678c-1.713 0-3.102 1.389-3.102 3.102 0 1.714 1.389 3.103 3.102 3.103s3.102-1.389 3.102-3.103c0-1.713-1.388-3.102-3.102-3.102z"/><path d="m483.842 218.678c-1.713 0-3.102 1.389-3.102 3.102 0 1.714 1.389 3.103 3.102 3.103s3.102-1.389 3.102-3.103c0-1.713-1.388-3.102-3.102-3.102z"/><path d="m483.842 238.678c-1.713 0-3.102 1.389-3.102 3.102 0 1.714 1.389 3.103 3.102 3.103s3.102-1.389 3.102-3.103c0-1.713-1.388-3.102-3.102-3.102z"/><path d="m483.842 258.678c-1.713 0-3.102 1.389-3.102 3.102 0 1.714 1.389 3.103 3.102 3.103s3.102-1.389 3.102-3.103c0-1.713-1.388-3.102-3.102-3.102z"/><path d="m483.842 278.678c-1.713 0-3.102 1.389-3.102 3.102 0 1.714 1.389 3.103 3.102 3.103s3.102-1.389 3.102-3.103c0-1.713-1.388-3.102-3.102-3.102z"/><path d="m483.842 298.678c-1.713 0-3.102 1.389-3.102 3.102 0 1.714 1.389 3.103 3.102 3.103s3.102-1.389 3.102-3.103c0-1.713-1.388-3.102-3.102-3.102z"/><path d="m483.842 318.678c-1.713 0-3.102 1.389-3.102 3.102 0 1.714 1.389 3.103 3.102 3.103s3.102-1.389 3.102-3.103c0-1.713-1.388-3.102-3.102-3.102z"/><path d="m483.842 338.678c-1.713 0-3.102 1.389-3.102 3.102 0 1.714 1.389 3.103 3.102 3.103s3.102-1.389 3.102-3.103c0-1.713-1.388-3.102-3.102-3.102z"/><path d="m483.842 358.678c-1.713 0-3.102 1.389-3.102 3.102 0 1.714 1.389 3.103 3.102 3.103s3.102-1.389 3.102-3.103c0-1.713-1.388-3.102-3.102-3.102z"/><path d="m483.842 378.678c-1.713 0-3.102 1.389-3.102 3.102 0 1.714 1.389 3.103 3.102 3.103s3.102-1.389 3.102-3.103c0-1.713-1.388-3.102-3.102-3.102z"/><path d="m483.842 398.678c-1.713 0-3.102 1.389-3.102 3.102 0 1.714 1.389 3.103 3.102 3.103s3.102-1.389 3.102-3.103c0-1.713-1.388-3.102-3.102-3.102z"/><path d="m474.219 68.301c-1.713 0-3.102 1.389-3.102 3.103 0 1.713 1.389 3.103 3.102 3.103s3.102-1.39 3.102-3.103c0-1.714-1.389-3.103-3.102-3.103z"/><path d="m474.219 88.301c-1.713 0-3.102 1.389-3.102 3.103 0 1.713 1.389 3.103 3.102 3.103s3.102-1.39 3.102-3.103c0-1.714-1.389-3.103-3.102-3.103z"/><path d="m474.219 108.301c-1.713 0-3.102 1.389-3.102 3.103 0 1.713 1.389 3.103 3.102 3.103s3.102-1.39 3.102-3.103c0-1.714-1.389-3.103-3.102-3.103z"/><path d="m474.219 128.301c-1.713 0-3.102 1.389-3.102 3.103 0 1.713 1.389 3.102 3.102 3.102s3.102-1.39 3.102-3.102c0-1.714-1.389-3.103-3.102-3.103z"/><path d="m474.219 148.301c-1.713 0-3.102 1.389-3.102 3.103 0 1.713 1.389 3.102 3.102 3.102s3.102-1.39 3.102-3.102c0-1.714-1.389-3.103-3.102-3.103z"/><path d="m474.219 168.301c-1.713 0-3.102 1.389-3.102 3.103 0 1.713 1.389 3.102 3.102 3.102s3.102-1.39 3.102-3.102c0-1.714-1.389-3.103-3.102-3.103z"/><path d="m474.219 188.301c-1.713 0-3.102 1.389-3.102 3.103 0 1.713 1.389 3.102 3.102 3.102s3.102-1.39 3.102-3.102c0-1.714-1.389-3.103-3.102-3.103z"/><path d="m474.219 208.301c-1.713 0-3.102 1.389-3.102 3.103 0 1.713 1.389 3.102 3.102 3.102s3.102-1.39 3.102-3.102c0-1.714-1.389-3.103-3.102-3.103z"/><path d="m474.219 228.301c-1.713 0-3.102 1.389-3.102 3.103 0 1.713 1.389 3.102 3.102 3.102s3.102-1.39 3.102-3.102c0-1.714-1.389-3.103-3.102-3.103z"/><path d="m474.219 248.301c-1.713 0-3.102 1.389-3.102 3.103 0 1.713 1.389 3.102 3.102 3.102s3.102-1.39 3.102-3.102c0-1.714-1.389-3.103-3.102-3.103z"/><path d="m474.219 268.301c-1.713 0-3.102 1.389-3.102 3.103 0 1.713 1.389 3.103 3.102 3.103s3.102-1.39 3.102-3.103c0-1.714-1.389-3.103-3.102-3.103z"/><path d="m474.219 288.301c-1.713 0-3.102 1.389-3.102 3.103 0 1.713 1.389 3.103 3.102 3.103s3.102-1.39 3.102-3.103c0-1.714-1.389-3.103-3.102-3.103z"/><path d="m474.219 308.301c-1.713 0-3.102 1.389-3.102 3.103 0 1.713 1.389 3.103 3.102 3.103s3.102-1.39 3.102-3.103c0-1.714-1.389-3.103-3.102-3.103z"/><path d="m474.219 328.301c-1.713 0-3.102 1.389-3.102 3.103 0 1.713 1.389 3.103 3.102 3.103s3.102-1.39 3.102-3.103c0-1.714-1.389-3.103-3.102-3.103z"/><path d="m474.219 348.301c-1.713 0-3.102 1.389-3.102 3.103 0 1.713 1.389 3.103 3.102 3.103s3.102-1.39 3.102-3.103c0-1.714-1.389-3.103-3.102-3.103z"/><path d="m474.219 368.301c-1.713 0-3.102 1.389-3.102 3.103 0 1.713 1.389 3.103 3.102 3.103s3.102-1.39 3.102-3.103c0-1.714-1.389-3.103-3.102-3.103z"/><path d="m474.219 388.301c-1.713 0-3.102 1.389-3.102 3.103 0 1.713 1.389 3.103 3.102 3.103s3.102-1.39 3.102-3.103c0-1.714-1.389-3.103-3.102-3.103z"/><path d="m463.842 398.678c-1.713 0-3.102 1.389-3.102 3.102 0 1.714 1.389 3.103 3.102 3.103s3.102-1.389 3.102-3.103c0-1.713-1.388-3.102-3.102-3.102z"/><path d="m474.219 408.301c-1.713 0-3.102 1.389-3.102 3.103 0 1.713 1.389 3.103 3.102 3.103s3.102-1.39 3.102-3.103c0-1.714-1.389-3.103-3.102-3.103z"/><path d="m463.842 418.678c-1.713 0-3.102 1.389-3.102 3.102 0 1.714 1.389 3.103 3.102 3.103s3.102-1.389 3.102-3.103c0-1.713-1.388-3.102-3.102-3.102z"/><path d="m443.842 398.678c-1.713 0-3.102 1.389-3.102 3.102 0 1.714 1.389 3.103 3.102 3.103s3.102-1.389 3.102-3.103c0-1.713-1.388-3.102-3.102-3.102z"/><path d="m454.219 408.301c-1.713 0-3.102 1.389-3.102 3.103 0 1.713 1.389 3.103 3.102 3.103s3.102-1.39 3.102-3.103c0-1.714-1.389-3.103-3.102-3.103z"/><path d="m443.842 424.882c1.713 0 3.102-1.389 3.102-3.103 0-1.713-1.389-3.102-3.102-3.102s-3.102 1.389-3.102 3.102c0 1.715 1.389 3.103 3.102 3.103z"/><path d="m454.219 428.301c-1.713 0-3.102 1.389-3.102 3.103 0 .536.149 1.033.388 1.474 1.801.022 3.586.062 5.374.101.275-.463.443-.997.443-1.574-.001-1.715-1.39-3.104-3.103-3.104z"/><path d="m434.219 414.506c1.713 0 3.102-1.39 3.102-3.103 0-1.714-1.389-3.103-3.102-3.103s-3.102 1.389-3.102 3.103c-.001 1.714 1.388 3.103 3.102 3.103z"/><path d="m423.842 418.678c-1.713 0-3.102 1.389-3.102 3.102 0 1.714 1.389 3.103 3.102 3.103s3.102-1.389 3.102-3.103c0-1.713-1.388-3.102-3.102-3.102z"/><path d="m434.219 428.301c-1.713 0-3.102 1.389-3.102 3.103 0 .563.162 1.085.425 1.541 1.803-.031 3.61-.068 5.401-.086.234-.436.378-.926.378-1.455 0-1.714-1.389-3.103-3.102-3.103z"/><path d="m414.219 408.301c-1.713 0-3.102 1.389-3.102 3.103 0 1.713 1.389 3.103 3.102 3.103s3.102-1.39 3.102-3.103c0-1.714-1.389-3.103-3.102-3.103z"/><path d="m403.842 418.678c-1.713 0-3.102 1.389-3.102 3.102 0 1.714 1.389 3.103 3.102 3.103s3.102-1.389 3.102-3.103c0-1.713-1.388-3.102-3.102-3.102z"/><path d="m414.219 428.301c-1.713 0-3.102 1.389-3.102 3.103 0 .83.331 1.581.862 2.138 1.549-.067 3.101-.14 4.642-.197.431-.532.7-1.202.7-1.94 0-1.715-1.389-3.104-3.102-3.104z"/><path d="m394.219 408.301c-1.713 0-3.102 1.389-3.102 3.103 0 1.713 1.389 3.103 3.102 3.103s3.102-1.39 3.102-3.103c0-1.714-1.389-3.103-3.102-3.103z"/><path d="m383.842 418.678c-1.713 0-3.102 1.389-3.102 3.102 0 1.714 1.389 3.103 3.102 3.103s3.102-1.389 3.102-3.103c0-1.713-1.388-3.102-3.102-3.102z"/><path d="m397.321 431.404c0-1.714-1.389-3.103-3.102-3.103s-3.102 1.389-3.102 3.103c0 1.697 1.364 3.071 3.055 3.098.079-.006.157-.01.236-.015 1.623-.1 2.913-1.435 2.913-3.083z"/><path d="m374.219 408.301c-1.713 0-3.102 1.389-3.102 3.103 0 1.713 1.389 3.103 3.102 3.103s3.102-1.39 3.102-3.103c0-1.714-1.389-3.103-3.102-3.103z"/><path d="m363.842 418.678c-1.713 0-3.102 1.389-3.102 3.102 0 1.714 1.389 3.103 3.102 3.103s3.102-1.389 3.102-3.103c0-1.713-1.388-3.102-3.102-3.102z"/><path d="m374.219 428.301c-1.713 0-3.102 1.389-3.102 3.103 0 1.713 1.389 3.103 3.102 3.103s3.102-1.39 3.102-3.103c0-1.714-1.389-3.103-3.102-3.103z"/><path d="m343.842 418.678c-1.713 0-3.102 1.389-3.102 3.102 0 1.714 1.389 3.103 3.102 3.103s3.102-1.389 3.102-3.103c0-1.713-1.388-3.102-3.102-3.102z"/><path d="m354.219 428.301c-1.713 0-3.102 1.389-3.102 3.103 0 1.713 1.389 3.103 3.102 3.103s3.102-1.39 3.102-3.103c0-1.714-1.389-3.103-3.102-3.103z"/><path d="m334.219 428.301c-1.713 0-3.102 1.389-3.102 3.103 0 1.713 1.389 3.103 3.102 3.103s3.102-1.39 3.102-3.103c0-1.714-1.389-3.103-3.102-3.103z"/><path d="m314.219 428.301c-1.713 0-3.102 1.389-3.102 3.103 0 1.713 1.389 3.103 3.102 3.103s3.102-1.39 3.102-3.103c0-1.714-1.389-3.103-3.102-3.103z"/><path d="m303.842 438.678c-1.713 0-3.102 1.389-3.102 3.102 0 1.125.604 2.101 1.501 2.646 1.296-.188 2.59-.374 3.883-.558.505-.552.821-1.28.821-2.088-.001-1.713-1.389-3.102-3.103-3.102z"/><path d="m283.842 438.678c-1.713 0-3.102 1.389-3.102 3.102 0 1.714 1.389 3.103 3.102 3.103s3.102-1.389 3.102-3.103c0-1.713-1.388-3.102-3.102-3.102z"/><path d="m223.842 438.678c-1.713 0-3.102 1.389-3.102 3.102 0 1.714 1.389 3.103 3.102 3.103s3.102-1.389 3.102-3.103c0-1.713-1.389-3.102-3.102-3.102z"/><path d="m214.219 428.301c-1.713 0-3.102 1.389-3.102 3.103 0 1.713 1.389 3.103 3.102 3.103s3.102-1.39 3.102-3.103c0-1.714-1.389-3.103-3.102-3.103z"/><path d="m183.842 418.678c-1.713 0-3.102 1.389-3.102 3.102 0 1.714 1.389 3.103 3.102 3.103s3.102-1.389 3.102-3.103c0-1.713-1.389-3.102-3.102-3.102z"/><path d="m194.219 428.301c-1.713 0-3.102 1.389-3.102 3.103 0 1.713 1.389 3.103 3.102 3.103s3.102-1.39 3.102-3.103c0-1.714-1.389-3.103-3.102-3.103z"/><path d="m163.842 418.678c-1.713 0-3.102 1.389-3.102 3.102 0 1.714 1.389 3.103 3.102 3.103s3.102-1.389 3.102-3.103c0-1.713-1.389-3.102-3.102-3.102z"/><path d="m174.219 428.301c-1.713 0-3.102 1.389-3.102 3.103 0 1.713 1.389 3.103 3.102 3.103s3.102-1.39 3.102-3.103c0-1.714-1.389-3.103-3.102-3.103z"/><path d="m143.842 418.678c-1.713 0-3.102 1.389-3.102 3.102 0 1.714 1.389 3.103 3.102 3.103s3.102-1.389 3.102-3.103c0-1.713-1.389-3.102-3.102-3.102z"/><path d="m154.219 428.301c-1.713 0-3.102 1.389-3.102 3.103 0 1.713 1.389 3.103 3.102 3.103s3.102-1.39 3.102-3.103c0-1.714-1.389-3.103-3.102-3.103z"/><path d="m134.219 408.301c-1.713 0-3.102 1.389-3.102 3.103 0 1.713 1.389 3.103 3.102 3.103s3.102-1.39 3.102-3.103c0-1.714-1.389-3.103-3.102-3.103z"/><path d="m123.842 418.678c-1.713 0-3.102 1.389-3.102 3.102 0 1.714 1.389 3.103 3.102 3.103s3.102-1.389 3.102-3.103c0-1.713-1.389-3.102-3.102-3.102z"/><path d="m137.321 431.404c0-1.714-1.389-3.103-3.102-3.103s-3.102 1.389-3.102 3.103c0 1.403.938 2.575 2.217 2.958.47.032.939.059 1.409.091 1.462-.249 2.578-1.515 2.578-3.049z"/><path d="m114.219 408.301c-1.713 0-3.102 1.389-3.102 3.103 0 1.713 1.389 3.103 3.102 3.103s3.102-1.39 3.102-3.103c0-1.714-1.389-3.103-3.102-3.103z"/><path d="m103.842 418.678c-1.713 0-3.102 1.389-3.102 3.102 0 1.714 1.389 3.103 3.102 3.103s3.102-1.389 3.102-3.103c0-1.713-1.389-3.102-3.102-3.102z"/><path d="m114.219 428.301c-1.713 0-3.102 1.389-3.102 3.103 0 .654.205 1.259.55 1.759 1.635.067 3.273.158 4.91.236.458-.541.745-1.232.745-1.995-.001-1.714-1.39-3.103-3.103-3.103z"/><path d="m94.219 408.301c-1.713 0-3.102 1.389-3.102 3.103 0 1.713 1.389 3.103 3.102 3.103s3.102-1.39 3.102-3.103c0-1.714-1.389-3.103-3.102-3.103z"/><path d="m83.842 418.678c-1.713 0-3.102 1.389-3.102 3.102 0 1.714 1.389 3.103 3.102 3.103s3.102-1.389 3.102-3.103c0-1.713-1.389-3.102-3.102-3.102z"/><path d="m94.219 428.301c-1.713 0-3.102 1.389-3.102 3.103 0 .426.086.832.242 1.201 1.888.029 3.776.062 5.665.104.186-.397.297-.837.297-1.306 0-1.713-1.389-3.102-3.102-3.102z"/><path d="m63.842 398.678c-1.713 0-3.102 1.389-3.102 3.102 0 1.714 1.389 3.103 3.102 3.103s3.102-1.389 3.102-3.103c0-1.713-1.389-3.102-3.102-3.102z"/><path d="m74.219 408.301c-1.713 0-3.102 1.389-3.102 3.103 0 1.713 1.389 3.103 3.102 3.103s3.102-1.39 3.102-3.103c0-1.714-1.389-3.103-3.102-3.103z"/><path d="m63.842 418.678c-1.713 0-3.102 1.389-3.102 3.102 0 1.714 1.389 3.103 3.102 3.103s3.102-1.389 3.102-3.103c0-1.713-1.389-3.102-3.102-3.102z"/><path d="m43.842 78.678c-1.713 0-3.102 1.389-3.102 3.102 0 1.714 1.389 3.103 3.102 3.103s3.102-1.389 3.102-3.103c0-1.713-1.388-3.102-3.102-3.102z"/><path d="m43.842 98.678c-1.713 0-3.102 1.389-3.102 3.102 0 1.714 1.389 3.103 3.102 3.103s3.102-1.389 3.102-3.103c0-1.713-1.388-3.102-3.102-3.102z"/><path d="m43.842 118.678c-1.713 0-3.102 1.389-3.102 3.102 0 1.714 1.389 3.103 3.102 3.103s3.102-1.389 3.102-3.103c0-1.713-1.388-3.102-3.102-3.102z"/><path d="m43.842 138.678c-1.713 0-3.102 1.389-3.102 3.102 0 1.714 1.389 3.103 3.102 3.103s3.102-1.389 3.102-3.103c0-1.713-1.388-3.102-3.102-3.102z"/><path d="m43.842 158.678c-1.713 0-3.102 1.389-3.102 3.102 0 1.714 1.389 3.103 3.102 3.103s3.102-1.389 3.102-3.103c0-1.713-1.388-3.102-3.102-3.102z"/><path d="m43.842 178.678c-1.713 0-3.102 1.389-3.102 3.102 0 1.714 1.389 3.103 3.102 3.103s3.102-1.389 3.102-3.103c0-1.713-1.388-3.102-3.102-3.102z"/><path d="m43.842 198.678c-1.713 0-3.102 1.389-3.102 3.102 0 1.714 1.389 3.103 3.102 3.103s3.102-1.389 3.102-3.103c0-1.713-1.388-3.102-3.102-3.102z"/><path d="m43.842 218.678c-1.713 0-3.102 1.389-3.102 3.102 0 1.714 1.389 3.103 3.102 3.103s3.102-1.389 3.102-3.103c0-1.713-1.388-3.102-3.102-3.102z"/><path d="m43.842 238.678c-1.713 0-3.102 1.389-3.102 3.102 0 1.714 1.389 3.103 3.102 3.103s3.102-1.389 3.102-3.103c0-1.713-1.388-3.102-3.102-3.102z"/><path d="m43.842 258.678c-1.713 0-3.102 1.389-3.102 3.102 0 1.714 1.389 3.103 3.102 3.103s3.102-1.389 3.102-3.103c0-1.713-1.388-3.102-3.102-3.102z"/><path d="m43.842 278.678c-1.713 0-3.102 1.389-3.102 3.102 0 1.714 1.389 3.103 3.102 3.103s3.102-1.389 3.102-3.103c0-1.713-1.388-3.102-3.102-3.102z"/><path d="m43.842 298.678c-1.713 0-3.102 1.389-3.102 3.102 0 1.714 1.389 3.103 3.102 3.103s3.102-1.389 3.102-3.103c0-1.713-1.388-3.102-3.102-3.102z"/><path d="m43.842 318.678c-1.713 0-3.102 1.389-3.102 3.102 0 1.714 1.389 3.103 3.102 3.103s3.102-1.389 3.102-3.103c0-1.713-1.388-3.102-3.102-3.102z"/><path d="m43.842 338.678c-1.713 0-3.102 1.389-3.102 3.102 0 1.714 1.389 3.103 3.102 3.103s3.102-1.389 3.102-3.103c0-1.713-1.388-3.102-3.102-3.102z"/><path d="m43.842 358.678c-1.713 0-3.102 1.389-3.102 3.102 0 1.714 1.389 3.103 3.102 3.103s3.102-1.389 3.102-3.103c0-1.713-1.388-3.102-3.102-3.102z"/><path d="m43.842 378.678c-1.713 0-3.102 1.389-3.102 3.102 0 1.714 1.389 3.103 3.102 3.103s3.102-1.389 3.102-3.103c0-1.713-1.388-3.102-3.102-3.102z"/><path d="m43.842 398.678c-1.713 0-3.102 1.389-3.102 3.102 0 1.714 1.389 3.103 3.102 3.103s3.102-1.389 3.102-3.103c0-1.713-1.388-3.102-3.102-3.102z"/><path d="m54.219 408.301c-1.713 0-3.102 1.389-3.102 3.103 0 1.713 1.389 3.103 3.102 3.103s3.102-1.39 3.102-3.103c0-1.714-1.389-3.103-3.102-3.103z"/><path d="m43.842 418.678c-1.713 0-3.102 1.389-3.102 3.102 0 1.714 1.389 3.103 3.102 3.103s3.102-1.389 3.102-3.103c0-1.713-1.388-3.102-3.102-3.102z"/><path d="m54.219 428.301c-1.713 0-3.102 1.389-3.102 3.103 0 .583.171 1.123.451 1.589 1.794-.064 3.591-.102 5.386-.153.227-.432.368-.915.368-1.436-.001-1.714-1.39-3.103-3.103-3.103z"/><path d="m34.219 68.301c-1.713 0-3.102 1.389-3.102 3.103 0 1.713 1.389 3.103 3.102 3.103s3.102-1.39 3.102-3.103c0-1.714-1.389-3.103-3.102-3.103z"/><path d="m34.219 88.301c-1.713 0-3.102 1.389-3.102 3.103 0 1.713 1.389 3.103 3.102 3.103s3.102-1.39 3.102-3.103c0-1.714-1.389-3.103-3.102-3.103z"/><path d="m23.842 98.678c-.509 0-.981.134-1.405.351v5.503c.424.217.896.351 1.405.351 1.713 0 3.102-1.389 3.102-3.103 0-1.713-1.388-3.102-3.102-3.102z"/><path d="m34.219 108.301c-1.713 0-3.102 1.389-3.102 3.103 0 1.713 1.389 3.103 3.102 3.103s3.102-1.39 3.102-3.103c0-1.714-1.389-3.103-3.102-3.103z"/><path d="m23.842 118.678c-.509 0-.981.134-1.405.351v5.503c.424.217.896.351 1.405.351 1.713 0 3.102-1.389 3.102-3.103 0-1.713-1.388-3.102-3.102-3.102z"/><path d="m34.219 128.301c-1.713 0-3.102 1.389-3.102 3.103 0 1.713 1.389 3.102 3.102 3.102s3.102-1.39 3.102-3.102c0-1.714-1.389-3.103-3.102-3.103z"/><path d="m23.842 138.678c-.509 0-.981.134-1.405.351v5.503c.424.217.896.351 1.405.351 1.713 0 3.102-1.389 3.102-3.103 0-1.713-1.388-3.102-3.102-3.102z"/><path d="m34.219 148.301c-1.713 0-3.102 1.389-3.102 3.103 0 1.713 1.389 3.102 3.102 3.102s3.102-1.39 3.102-3.102c0-1.714-1.389-3.103-3.102-3.103z"/><path d="m23.842 158.678c-.509 0-.981.134-1.405.351v5.503c.424.217.896.351 1.405.351 1.713 0 3.102-1.389 3.102-3.103 0-1.713-1.388-3.102-3.102-3.102z"/><path d="m34.219 168.301c-1.713 0-3.102 1.389-3.102 3.103 0 1.713 1.389 3.102 3.102 3.102s3.102-1.39 3.102-3.102c0-1.714-1.389-3.103-3.102-3.103z"/><path d="m23.842 178.678c-.509 0-.981.134-1.405.351v5.503c.424.217.896.351 1.405.351 1.713 0 3.102-1.389 3.102-3.103 0-1.713-1.388-3.102-3.102-3.102z"/><path d="m34.219 188.301c-1.713 0-3.102 1.389-3.102 3.103 0 1.713 1.389 3.102 3.102 3.102s3.102-1.39 3.102-3.102c0-1.714-1.389-3.103-3.102-3.103z"/><path d="m23.842 198.678c-.509 0-.981.134-1.405.351v5.503c.424.217.896.351 1.405.351 1.713 0 3.102-1.389 3.102-3.103 0-1.713-1.388-3.102-3.102-3.102z"/><path d="m34.219 208.301c-1.713 0-3.102 1.389-3.102 3.103 0 1.713 1.389 3.102 3.102 3.102s3.102-1.39 3.102-3.102c0-1.714-1.389-3.103-3.102-3.103z"/><path d="m23.842 218.678c-.509 0-.981.134-1.405.351v5.503c.424.217.896.351 1.405.351 1.713 0 3.102-1.389 3.102-3.103 0-1.713-1.388-3.102-3.102-3.102z"/><path d="m34.219 228.301c-1.713 0-3.102 1.389-3.102 3.103 0 1.713 1.389 3.102 3.102 3.102s3.102-1.39 3.102-3.102c0-1.714-1.389-3.103-3.102-3.103z"/><path d="m23.842 238.678c-.509 0-.981.134-1.405.351v5.503c.424.217.896.351 1.405.351 1.713 0 3.102-1.389 3.102-3.103 0-1.713-1.388-3.102-3.102-3.102z"/><path d="m34.219 248.301c-1.713 0-3.102 1.389-3.102 3.103 0 1.713 1.389 3.102 3.102 3.102s3.102-1.39 3.102-3.102c0-1.714-1.389-3.103-3.102-3.103z"/><path d="m23.842 258.678c-.509 0-.981.134-1.405.351v5.503c.424.217.896.351 1.405.351 1.713 0 3.102-1.389 3.102-3.103 0-1.713-1.388-3.102-3.102-3.102z"/><path d="m34.219 268.301c-1.713 0-3.102 1.389-3.102 3.103 0 1.713 1.389 3.103 3.102 3.103s3.102-1.39 3.102-3.103c0-1.714-1.389-3.103-3.102-3.103z"/><path d="m23.842 278.678c-.509 0-.981.134-1.405.351v5.503c.424.217.896.351 1.405.351 1.713 0 3.102-1.389 3.102-3.103 0-1.713-1.388-3.102-3.102-3.102z"/><path d="m34.219 288.301c-1.713 0-3.102 1.389-3.102 3.103 0 1.713 1.389 3.103 3.102 3.103s3.102-1.39 3.102-3.103c0-1.714-1.389-3.103-3.102-3.103z"/><path d="m23.842 298.678c-.509 0-.981.134-1.405.351v5.503c.424.217.896.351 1.405.351 1.713 0 3.102-1.389 3.102-3.103 0-1.713-1.388-3.102-3.102-3.102z"/><path d="m34.219 308.301c-1.713 0-3.102 1.389-3.102 3.103 0 1.713 1.389 3.103 3.102 3.103s3.102-1.39 3.102-3.103c0-1.714-1.389-3.103-3.102-3.103z"/><path d="m23.842 318.678c-.509 0-.981.134-1.405.351v5.503c.424.217.896.351 1.405.351 1.713 0 3.102-1.389 3.102-3.103 0-1.713-1.388-3.102-3.102-3.102z"/><path d="m34.219 328.301c-1.713 0-3.102 1.389-3.102 3.103 0 1.713 1.389 3.103 3.102 3.103s3.102-1.39 3.102-3.103c0-1.714-1.389-3.103-3.102-3.103z"/><path d="m23.842 338.678c-.509 0-.981.134-1.405.351v5.503c.424.217.896.351 1.405.351 1.713 0 3.102-1.389 3.102-3.103 0-1.713-1.388-3.102-3.102-3.102z"/><path d="m34.219 348.301c-1.713 0-3.102 1.389-3.102 3.103 0 1.713 1.389 3.103 3.102 3.103s3.102-1.39 3.102-3.103c0-1.714-1.389-3.103-3.102-3.103z"/><path d="m23.842 358.678c-.509 0-.981.134-1.405.351v5.503c.424.217.896.351 1.405.351 1.713 0 3.102-1.389 3.102-3.103 0-1.713-1.388-3.102-3.102-3.102z"/><path d="m34.219 368.301c-1.713 0-3.102 1.389-3.102 3.103 0 1.713 1.389 3.103 3.102 3.103s3.102-1.39 3.102-3.103c0-1.714-1.389-3.103-3.102-3.103z"/><path d="m23.842 378.678c-.509 0-.981.134-1.405.351v5.503c.424.217.896.351 1.405.351 1.713 0 3.102-1.389 3.102-3.103 0-1.713-1.388-3.102-3.102-3.102z"/><path d="m34.219 388.301c-1.713 0-3.102 1.389-3.102 3.103 0 1.713 1.389 3.103 3.102 3.103s3.102-1.39 3.102-3.103c0-1.714-1.389-3.103-3.102-3.103z"/><path d="m23.842 398.678c-.509 0-.981.134-1.405.351v5.503c.424.217.896.351 1.405.351 1.713 0 3.102-1.389 3.102-3.103 0-1.713-1.388-3.102-3.102-3.102z"/><path d="m34.219 414.506c1.713 0 3.102-1.39 3.102-3.103 0-1.714-1.389-3.103-3.102-3.103s-3.102 1.389-3.102 3.103c-.001 1.714 1.388 3.103 3.102 3.103z"/></g><path d="m438.018 401.069c-51.109 2.156-110.511 18.569-172.479 43.63-6.061 2.451-12.858 2.301-18.826-.371-55.373-24.797-118.949-41.552-172.54-43.309-13.974-.458-25.616-11.062-25.616-25.689v-304.906c0-13.782 10.376-25.12 23.537-25.729 64.681-2.992 137.018 39.326 183.831 57.615 42.058-17.792 123.063-63.325 184.859-58.467 12.799 1.006 22.658 12.24 22.658 25.668v305.828c.001 14.553-11.524 25.144-25.424 25.73z" fill="#f9fbfc"/></g><g fill="#31373d"><path d="m492.511 77.892c-3.479-12.338-14.604-21.767-28.162-22.758-.138-.01-.275-.016-.413-.025-4.545-8.523-12.975-14.566-22.831-15.341-58.817-4.632-168.931 49.742-185.191 57.96-15.973-7.974-122.634-59.938-184.01-57.117-10.384.482-19.243 6.609-23.909 15.459-13.4.885-24.394 9.735-28.204 21.685-11.715 5.84-19.791 17.925-19.791 31.88v318.852c0 19.641 15.979 35.62 35.62 35.62h176.826c1.698 4.886 6.349 8.404 11.806 8.404h63.497c5.457 0 10.108-3.518 11.805-8.404h176.826c19.641 0 35.62-15.979 35.62-35.62v-318.852c0-13.837-7.935-25.848-19.489-31.743zm-7.037 8.18v320.054c0 6.068-2.435 11.776-6.856 16.076-4.676 4.548-10.881 6.929-17.568 6.765-51.987-1.457-113.505 3.715-187.81 15.779 60.617-23.921 117.531-37.594 164.951-39.594h-.001c16.727-.704 29.341-13.522 29.341-29.814v-305.827c0-1.953-.185-3.867-.536-5.725 10.584 2.26 18.479 11.48 18.479 22.286zm-45.01-38.155c10.593.833 18.891 10.318 18.891 21.594v305.827c0 11.823-9.247 21.129-21.509 21.646-.001 0-.001 0-.001 0-49.948 2.107-110.061 16.853-173.84 42.646-1.267.512-2.581.884-3.917 1.122l.095-335.986c0-.009-.003-.017-.003-.025 17.376-8.682 125.033-61.148 180.284-56.824zm-387.819 22.507c0-11.628 8.626-21.135 19.637-21.645 1.5-.07 3.03-.104 4.59-.104 59.05 0 159.537 48.532 175.136 56.249l-.094 335.58c-1.204-.287-2.388-.674-3.529-1.185-56.167-25.151-119.616-40.6-174.077-42.386-12.349-.404-21.662-9.693-21.662-21.603v-304.906zm-26.121 16.605c0-10.898 7.836-20.029 18.469-22.31-.342 1.847-.524 3.755-.524 5.706v304.906c0 16.422 12.712 29.222 29.57 29.775 51.526 1.689 111.313 15.875 165.039 39.057-54.08-10.467-107.768-15.75-160.093-15.75-9.329 0-18.62.168-27.856.504-6.692.237-12.969-2.13-17.69-6.683-4.459-4.3-6.915-10.024-6.915-16.116v-319.089zm477.3 341.458c0 15.133-12.311 27.445-27.445 27.445h-180.226c-2.258 0-4.088 1.83-4.088 4.088 0 2.38-1.936 4.316-4.316 4.316h-63.497c-2.38 0-4.317-1.936-4.317-4.316 0-2.258-1.83-4.088-4.088-4.088h-180.227c-15.134 0-27.445-12.311-27.445-27.445v-318.852c0-8.591 3.975-16.262 10.174-21.298v317.78c0 8.333 3.344 16.146 9.416 22.002 6.242 6.02 14.865 9.304 23.662 8.967 63.31-2.302 128.974 3.383 195.159 16.897 3.381.691 6.816 1.036 10.276 1.036 2.92 0 5.858-.246 8.796-.737 77.803-13.029 141.645-18.629 195.165-17.141 8.884.247 17.222-2.975 23.495-9.076 6.018-5.852 9.332-13.643 9.332-21.937v-317.78c6.197 5.035 10.174 12.698 10.174 21.287z"/><path d="m88.496 118.704 125.712 36.726c.383.112.768.165 1.149.165 1.77 0 3.4-1.159 3.922-2.942.633-2.168-.611-4.437-2.777-5.071l-125.713-36.727c-2.166-.633-4.436.612-5.071 2.777-.632 2.169.611 4.438 2.778 5.072z"/><path d="m88.496 87.282 125.712 36.726c.383.112.768.165 1.149.165 1.77 0 3.4-1.159 3.922-2.942.633-2.168-.611-4.437-2.777-5.071l-125.713-36.726c-2.166-.633-4.436.612-5.071 2.777-.632 2.168.611 4.437 2.778 5.071z"/><path d="m88.234 150.664 125.712 36.727c.383.112.768.165 1.149.165 1.769 0 3.4-1.159 3.922-2.942.633-2.168-.611-4.437-2.777-5.071l-125.713-36.727c-2.164-.631-4.437.611-5.071 2.777-.632 2.168.611 4.438 2.778 5.071z"/><path d="m88.234 182.228 125.712 36.727c.383.112.768.165 1.149.165 1.769 0 3.4-1.159 3.922-2.942.633-2.168-.611-4.437-2.777-5.071l-125.713-36.728c-2.164-.632-4.437.612-5.071 2.777-.632 2.168.611 4.438 2.778 5.072z"/><path d="m88.234 214.046 125.712 36.727c.383.112.768.165 1.149.165 1.769 0 3.4-1.159 3.922-2.942.633-2.168-.611-4.437-2.777-5.071l-125.713-36.727c-2.164-.629-4.437.611-5.071 2.777-.632 2.168.611 4.438 2.778 5.071z"/><path d="m158.186 261.721-67.397-19.689c-2.166-.629-4.436.611-5.071 2.777-.633 2.168.611 4.437 2.777 5.071l67.397 19.689c.383.112.768.165 1.149.165 1.769 0 3.4-1.159 3.922-2.942.633-2.167-.61-4.437-2.777-5.071z"/><path d="m295.276 246.291c.379 0 .766-.053 1.149-.165l125.713-36.726c2.167-.634 3.41-2.903 2.777-5.071-.634-2.166-2.898-3.411-5.071-2.777l-125.713 36.726c-2.167.634-3.41 2.903-2.777 5.071.522 1.785 2.152 2.942 3.922 2.942z"/><path d="m420.105 233.513-125.712 36.727c-2.167.634-3.41 2.903-2.777 5.071.522 1.784 2.153 2.942 3.922 2.942.379 0 .766-.053 1.149-.165l125.713-36.727c2.167-.634 3.41-2.903 2.777-5.071-.635-2.166-2.898-3.407-5.072-2.777z"/><path d="m420.105 265.165-125.713 36.727c-2.167.634-3.41 2.903-2.777 5.071.522 1.784 2.153 2.942 3.922 2.942.379 0 .766-.053 1.149-.165l125.713-36.727c2.167-.634 3.41-2.903 2.777-5.071-.634-2.166-2.897-3.406-5.071-2.777z"/><path d="m420.105 294.813-125.712 36.727c-2.167.634-3.41 2.903-2.777 5.071.522 1.784 2.153 2.942 3.922 2.942.379 0 .766-.053 1.149-.165l125.713-36.727c2.167-.634 3.41-2.903 2.777-5.071-.635-2.167-2.898-3.408-5.072-2.777z"/><path d="m420.105 324.46-125.713 36.727c-2.167.634-3.41 2.903-2.777 5.071.522 1.784 2.153 2.942 3.922 2.942.379 0 .766-.053 1.149-.165l125.713-36.727c2.167-.634 3.41-2.903 2.777-5.071-.634-2.166-2.897-3.409-5.071-2.777z"/><path d="m316.542 164.818c.379 0 .765-.053 1.149-.165l67.397-19.689c2.167-.634 3.41-2.903 2.777-5.071-.634-2.166-2.897-3.406-5.071-2.777l-67.397 19.689c-2.167.634-3.41 2.903-2.777 5.071.522 1.784 2.152 2.942 3.922 2.942z"/></g></g></svg>