<svg height="512pt" viewBox="-77 0 512 512" width="512pt" xmlns="http://www.w3.org/2000/svg"><path d="m134.570312 283.792969h-134.570312l20.886719-32.375-20.886719-32.375h149.191406" fill="#ccc"/><path d="m105.726562 316.3125-51.378906 51.378906-8.125-37.65625-37.660156-8.125 68.90625-68.90625" fill="#ccc"/><path d="m344.546875 446.71875v65.28125h-286.226563v-65.28125c0-28.050781 22.738282-50.785156 50.777344-50.785156h184.664063c28.050781 0 50.785156 22.734375 50.785156 50.785156zm0 0" fill="#3b485b"/><path d="m344.546875 446.71875v65.28125h-268.828125v-65.28125c0-28.050781 22.734375-50.785156 50.785156-50.785156h167.257813c28.050781 0 50.785156 22.734375 50.785156 50.785156zm0 0" fill="#515f75"/><path d="m110.527344 395.941406-3.082032 78.09375 32.832032 8.210938-29.476563 29.472656h181.265625l-29.476562-29.472656 32.828125-8.210938-3.078125-78.09375" fill="#3b485b"/><path d="m264.019531 395.941406-33.066406 116.054688h-59.03125l-33.066406-116.054688" fill="#f2f2f2"/><path d="m160.988281 424.433594 40.449219 50.628906 40.046875-50.4375-40.046875-7.484375z" fill="#f74866"/><path d="m157.4375 461.140625 44-44 44 44 18.582031-65.199219h-125.164062zm0 0" fill="#e6e6e6"/><path d="m239.058594 330.734375v65.210937l-37.621094 21.195313-11.625-6.546875-25.996094-14.648438v-65.25l25.996094.011719zm0 0" fill="#f9c2af"/><path d="m172.125 511.996094 29.3125-36.933594 29.515625 36.933594" fill="#f74866"/><path d="m189.8125 330.707031-25.996094-.011719v65.246094l25.996094 14.652344v-30.171875c3.84375.378906 7.734375.59375 11.675781.59375 13.132813 0 25.773438-2.144531 37.570313-6.105469v-44.175781zm0 0" fill="#ea9e8f"/><path d="m319.589844 129.089844v118.101562c0 5.996094-.449219 11.875-1.304688 17.628906-8.511718 56.863282-57.5625 100.464844-116.796875 100.464844-32.601562 0-62.136719-13.222656-83.503906-34.589844-17.4375-17.4375-29.449219-40.320312-33.28125-65.863281-.855469-5.753906-1.304687-11.644531-1.304687-17.640625v-118.101562zm0 0" fill="#f9c2af"/><path d="m200.652344 365.28125c-32.28125-.21875-61.472656-13.394531-82.667969-34.582031-21.371094-21.378907-34.589844-50.894531-34.589844-83.507813v-118.097656h53.171875v118.097656c0 32.613282 7.261719 62.128906 19.011719 83.507813 11.566406 21.039062 27.476563 34.171875 45.074219 34.582031zm0 0" fill="#ea9e8f"/><path d="m319.589844 129.089844v29.597656c-8.09375 5.796875-17.773438 10.882812-29.273438 15.027344-42.796875 15.414062-84.222656 10.222656-113.515625 2.058594 0 0-.011719 0-.011719-.011719-25.523437-7.101563-41.835937-16.480469-41.835937-16.480469s-10.765625 51.832031-51.558594 51.832031v-82.023437zm0 0" fill="#ea9e8f"/><path d="m290.3125 161.183594c-42.789062 15.417968-84.21875 10.226562-113.519531 2.0625 0 0-.007813 0-.007813-.011719-25.515625-7.109375-41.828125-16.488281-41.828125-16.488281s-10.773437 51.832031-51.5625 51.832031c0 0-27.136719-48.003906-26.285156-92.417969.441406-23.03125 19.429687-40.253906 41.015625-40.253906 4.03125 0 8.15625.59375 12.261719 1.875 11.5625-31.042969 42.101562-50.691406 75.167969-48.679688 5.152343.320313 10.332031.730469 15.53125 1.199219.996093.085938 2.003906.175781 2.996093.269531.105469.007813.207031.019532.308594.027344 53.976563 5.070313 108.644531 14.941406 140.765625-20.597656 0 0 53.09375 122.300781-54.84375 161.183594zm0 0" fill="#515f75"/><path d="m185.554688 19.101562c5.152343.320313 10.332031.730469 15.535156 1.199219-47.625-2.007812-85.460938 102.871094-24.304688 142.933594-25.515625-7.109375-41.828125-16.488281-41.828125-16.488281s-10.773437 51.832031-51.5625 51.832031c0 0-27.136719-48.003906-26.285156-92.417969.441406-23.03125 19.429687-40.253906 41.015625-40.253906 4.03125 0 8.15625.59375 12.261719 1.875 11.5625-31.042969 42.101562-50.6875 75.167969-48.679688zm0 0" fill="#3b485b"/><path d="m204.414062 20.609375c-.113281-.019531-.21875-.027344-.328124-.039063.101562.011719.203124.019532.304687.03125zm0 0" fill="#f4af9d"/><path d="m201.488281 308.660156c-12.496093 0-24.996093-4.757812-34.507812-14.273437-3.058594-3.058594-3.058594-8.015625 0-11.074219 3.058593-3.058594 8.015625-3.058594 11.074219 0 12.921874 12.921875 33.949218 12.921875 46.867187 0 3.0625-3.058594 8.019531-3.058594 11.078125 0s3.058594 8.015625 0 11.074219c-9.515625 9.515625-22.011719 14.273437-34.511719 14.273437zm0 0" fill="#e06e86"/><path d="m319.589844 205.210938v41.980468c0 5.996094-.449219 11.875-1.304688 17.628906-.074218 0-.15625 0-.238281-.011718-77.5625-6.640625-155.5625-6.640625-233.125.011718-.070313.011719-.144531.011719-.21875.011719-.855469-5.753906-1.304687-11.644531-1.304687-17.640625v-41.980468c78.59375-6.535157 157.597656-6.535157 236.191406 0zm0 0" fill="#ea9e8f"/><path d="m329.929688 205.382812v35.71875c0 6.578126-5.324219 11.902344-11.902344 11.902344h-233.082032c-6.570312 0-11.894531-5.324218-11.894531-11.902344v-35.71875c0-6.578124 5.324219-11.902343 11.894531-11.902343h233.082032c6.578125 0 11.902344 5.324219 11.902344 11.902343zm0 0" fill="#ccc"/><path d="m329.929688 205.382812v35.71875c0 6.578126-5.324219 11.902344-11.902344 11.902344h-179.824219c-6.566406 0-11.894531-5.324218-11.894531-11.902344v-35.71875c0-6.578124 5.328125-11.902343 11.894531-11.902343h179.824219c6.578125 0 11.902344 5.324219 11.902344 11.902343zm0 0" fill="#e6e6e6"/></svg>