<?xml version="1.0" encoding="UTF-8"?>
<!DOCTYPE svg PUBLIC "-//W3C//DTD SVG 1.1//EN" "http://www.w3.org/Graphics/SVG/1.1/DTD/svg11.dtd">
<svg version="1.1" xmlns="http://www.w3.org/2000/svg" xmlns:xlink="http://www.w3.org/1999/xlink" x="0" y="0" width="584" height="892" viewBox="0, 0, 584, 892">
  <g id="Layer_1">
    <path d="M30.34,202.824 L198.34,202.824 L198.34,722.824 L30.34,722.824 z" fill="#007EB4"/>
    <path d="M30.34,838.824 C30.34,860.916 48.252,878.824 70.34,878.824 L158.34,878.824 C180.432,878.824 198.34,860.916 198.34,838.824 L198.34,774.824 L30.34,774.824 L30.34,838.824" fill="#D03F44"/>
    <path d="M30.34,722.824 L198.34,722.824 L198.34,774.824 L30.34,774.824 z" fill="#DFB941"/>
    <path d="M114.34,34.856 L70.356,122.808 L158.328,122.808 L114.34,34.856" fill="#007EB4"/>
    <path d="M70.356,122.808 L30.34,202.824 L198.34,202.824 L158.328,122.808 L70.356,122.808" fill="#FFFFFE"/>
    <path d="M21.332,714.82 L173.332,714.82 L173.332,210.824 L21.332,210.824 z M5.332,194.824 L189.332,194.824 L189.332,730.82 L5.332,730.82 z" fill="#1A1919"/>
    <path d="M21.332,782.82 L21.332,838.82 C21.332,856.468 35.688,870.82 53.332,870.82 L141.332,870.82 C158.98,870.82 173.332,856.468 173.332,838.82 L173.332,782.82 L21.332,782.82 z M141.332,886.82 L53.332,886.82 C26.868,886.82 5.332,865.292 5.332,838.82 L5.332,766.82 L189.332,766.82 L189.332,838.82 C189.332,865.292 167.8,886.82 141.332,886.82" fill="#1A1919"/>
    <path d="M21.332,766.82 L173.332,766.82 L173.332,730.82 L21.332,730.82 z M5.332,714.82 L189.332,714.82 L189.332,782.82 L5.332,782.82 z" fill="#1A1919"/>
    <path d="M66.296,114.808 L128.372,114.808 L97.332,52.74 L66.296,114.808 z M141.32,130.808 L53.348,130.808 L46.196,119.228 L90.18,31.276 L104.488,31.276 L148.472,119.228 L141.32,130.808" fill="#1A1919"/>
    <path d="M26.28,194.824 L168.388,194.824 L136.376,130.808 L58.292,130.808 L26.28,194.824 z M181.332,210.824 L13.332,210.824 L6.18,199.244 L46.196,119.228 L53.348,114.808 L141.32,114.808 L148.472,119.228 L188.488,199.244 L181.332,210.824" fill="#1A1919"/>
    <path d="M58.836,202.824 L74.836,202.824 L74.836,722.82 L58.836,722.82 z" fill="#1A1919"/>
    <path d="M119.832,202.824 L135.832,202.824 L135.832,722.82 L119.832,722.82 z" fill="#1A1919"/>
    <path d="M570.34,361.88 C570.34,339.788 552.432,321.88 530.34,321.88 L402.34,321.88 L402.34,722.824 L570.34,722.824 L570.34,361.88" fill="#00A091"/>
    <path d="M402.34,838.824 C402.34,860.916 420.252,878.824 442.34,878.824 L530.34,878.824 C552.432,878.824 570.34,860.916 570.34,838.824 L570.34,774.824 L402.34,774.824 L402.34,838.824" fill="#00A091"/>
    <path d="M402.34,722.824 L570.34,722.824 L570.34,774.824 L402.34,774.824 z" fill="#00A091"/>
    <path d="M393.332,714.82 L545.332,714.82 L545.332,361.88 C545.332,344.232 530.976,329.88 513.332,329.88 L425.332,329.88 C407.688,329.88 393.332,344.232 393.332,361.88 L393.332,714.82 z M561.332,730.82 L377.332,730.82 L377.332,361.88 C377.332,335.412 398.864,313.88 425.332,313.88 L513.332,313.88 C539.8,313.88 561.332,335.412 561.332,361.88 L561.332,730.82" fill="#1A1919"/>
    <path d="M393.332,782.82 L393.332,838.82 C393.332,856.468 407.688,870.82 425.332,870.82 L513.332,870.82 C530.976,870.82 545.332,856.468 545.332,838.82 L545.332,782.82 L393.332,782.82 z M513.332,886.82 L425.332,886.82 C398.864,886.82 377.332,865.292 377.332,838.82 L377.332,766.82 L561.332,766.82 L561.332,838.82 C561.332,865.292 539.8,886.82 513.332,886.82" fill="#1A1919"/>
    <path d="M393.332,766.82 L545.332,766.82 L545.332,730.82 L393.332,730.82 z M377.332,714.82 L561.332,714.82 L561.332,782.82 L377.332,782.82 z" fill="#1A1919"/>
    <path d="M420.068,313.868 L518.596,313.868 C520.956,308.796 523.064,303.896 525.116,299.124 C533.444,279.768 540.72,262.872 557.944,251.14 L557.944,163.584 C511.368,144.692 480.096,90.568 478.7,25.984 L459.964,25.984 C458.568,90.568 427.296,144.692 380.72,163.584 L380.72,251.14 C397.944,262.872 405.22,279.768 413.548,299.124 C415.6,303.896 417.708,308.796 420.068,313.868 z M528.656,329.868 L410.008,329.868 L407.82,325.368 C404.4,318.344 401.58,311.788 398.848,305.448 C390.384,285.772 384.268,271.56 368.684,262.456 L364.72,260.14 L364.72,152.288 L370.156,150.448 C414.332,135.504 444.012,83.668 444.012,21.468 C444.012,20.396 444.012,19.324 443.976,18.256 L443.7,9.984 L494.964,9.984 L494.688,18.256 C494.652,19.324 494.652,20.396 494.652,21.468 C494.652,83.668 524.332,135.504 568.508,150.448 L573.944,152.288 L573.944,260.14 L569.98,262.456 C554.396,271.56 548.28,285.772 539.816,305.448 C537.084,311.788 534.264,318.344 530.844,325.368 L528.656,329.868" fill="#1A1919"/>
    <path d="M461.332,20.128 L477.332,20.128 L477.332,186.936 L461.332,186.936 z" fill="#1A1919"/>
    <path d="M430.664,177.736 L508,177.736 L508,193.736 L430.664,193.736 z" fill="#1A1919"/>
  </g>
</svg>
